<svg xmlns="http://www.w3.org/2000/svg" xmlns:xlink="http://www.w3.org/1999/xlink" viewBox="0 0 746.69 184.73"><defs><style>.cls-1{fill:url(#linear-gradient);}.cls-2{fill:url(#linear-gradient-6);}.cls-3{fill:none;}</style><linearGradient id="linear-gradient" x1="657.29" y1="757.27" x2="1255.01" y2="757.27" gradientTransform="translate(-657.29 -647.09)" gradientUnits="userSpaceOnUse"><stop offset="0" stop-color="#7219d0"/><stop offset="1" stop-color="#00bea4"/></linearGradient><linearGradient id="linear-gradient-6" x1="199.46" y1="7.64" x2="279.48" y2="7.64" gradientUnits="userSpaceOnUse"><stop offset="0" stop-color="#4c4fc2"/><stop offset="1" stop-color="#3c67bb"/></linearGradient></defs><title>NOMU LOGO</title><g id="Layer_2" data-name="Layer 2"><g id="Layer_1-2" data-name="Layer 1"><path class="cls-1" d="M115.8,104.93v77.7H100.2v-77.7c0-38.4-16.5-53.7-41.1-53.7-23.4,0-43.5,15.3-43.5,53.7v77.7H0V38H15.6v21.3c9.9-15,24.6-23.7,43.5-23.7C99.3,35.63,115.8,63.53,115.8,104.93Z"/><path class="cls-1" d="M185.82,106.23c1.69-31.06,22.54-55.3,53.88-55.3,31.62,0,51.66,24.24,53.28,55.3H308.9c-1.79-39.21-29.19-70.6-69.2-70.6-39.73,0-68,31.39-69.8,70.6Z"/><path class="cls-1" d="M292.58,119.23c-3.37,28.51-22.93,50.5-52.88,50.5-29.68,0-50-22-53.46-50.5h-16c3.84,36.9,31.34,65.5,69.43,65.5,38.36,0,65.11-28.6,68.84-65.5Z"/><path class="cls-1" d="M571.8,104.93v77.7H556.2v-77.7c0-38.4-15.6-53.7-40.2-53.7-23.7,0-39.3,15.3-39.3,53.7v77.7H461.1v-77.7c0-38.4-15.6-53.7-40.2-53.7-23.4,0-39.31,15.3-39.31,53.7v77.7H366V38h15.6v20.1c9-14.1,22.81-22.5,41.11-22.5,25.5,0,40.5,11.4,48,30.3,9.3-18.6,25.8-30.3,47.1-30.3C557.7,35.63,571.8,63.53,571.8,104.93Z"/><path class="cls-1" d="M746.69,38v77.7c0,41.4-17.4,69-57.3,69-40.2,0-57.6-27.6-57.6-69V38h15.6v77.7c0,38.1,17.4,53.4,42,53.4s41.7-15.3,41.7-53.4V38Z"/><rect id="bar" class="cls-2" x="196.37" width="86.04" height="15.28" rx="4.66"/><path class="cls-3" d="M239.39,126.25V120"/></g></g></svg>